<?xml version="1.0" encoding="utf-8"?>
<!-- Generator: Adobe Illustrator 21.0.0, SVG Export Plug-In . SVG Version: 6.00 Build 0)  -->
<svg version="1.1" id="Layer_1" xmlns="http://www.w3.org/2000/svg" xmlns:xlink="http://www.w3.org/1999/xlink" x="0px" y="0px"
	 viewBox="0 0 66.6 26.2" style="enable-background:new 0 0 66.6 26.2;" xml:space="preserve">
<style type="text/css">
	.st0{fill:#B4BE35;}
	.st1{fill:#FFFFFF;}
</style>
<title>kstrap-logo</title>
<g id="Layer_2">
	<g id="Layer_1-2">
		<path class="st0" d="M0,0.2h2.4v11.7c0.2-0.6,0.5-1.2,0.8-1.8L8,0.2h2.4l-6,12.1L10.7,26H8.1L3.2,15.2c-0.3-0.6-0.5-1.3-0.7-1.9
			V26H0V0.2z"/>
		<path class="st1" d="M18.8,19.2c0-2.4-0.4-3.2-3.1-5.6C12.6,10.6,12,9.6,12,6.4v-2C12,1,12.8,0,15.9,0h1.3c3.1,0,4,1,4,4.4v4.4
			h-2.3V4.9c0-2-0.1-2.6-1.9-2.6h-0.7c-1.8,0-1.9,0.6-1.9,2.6v1.6c0,2.4,0.4,3.2,3.1,5.6c3.1,2.9,3.7,3.9,3.7,7.1v2.7
			c0,3.4-0.8,4.4-4,4.4h-1.3c-3.1,0-4-1-4-4.4v-5.1h2.3v4.6c0,2,0.1,2.6,1.9,2.6h0.7c1.8,0,1.9-0.6,1.9-2.6L18.8,19.2z"/>
		<path class="st1" d="M25.4,26V2.4h-2.9V0.2h8.2v2.3h-2.8V26H25.4z"/>
		<path class="st1" d="M42.3,21.5c0,1.5,0.1,3,0.5,4.5h-2.6c-0.3-1.3-0.4-2.7-0.3-4v-5.1c0-2-0.3-2.9-2.2-2.9H35v12h-2.4V0.2h5.7
			c3.2,0,4,1,4,4.4v4.2c0,2.6-0.5,3.7-2.1,4.2c1.6,0.4,2.1,1.6,2.1,4.2L42.3,21.5z M39.9,5.1c0-2-0.2-2.6-2-2.6H35v9.3h2.9
			c1.8,0,2-0.7,2-2.6L39.9,5.1z"/>
		<path class="st1" d="M51.8,21.9H47L46.4,26h-2.2l3.6-25.8h3.4L54.8,26h-2.4L51.8,21.9z M47.3,19.6h4.1l-0.7-5.5
			c-0.6-4.7-1.1-8.8-1.3-11.7c-0.2,3-0.6,7-1.3,11.7L47.3,19.6z"/>
		<path class="st1" d="M57.1,0.2h5.5c3.1,0,4,1,4,4.4v6.9c0,3.4-0.8,4.4-4,4.4h-3V26h-2.5V0.2z M62.2,13.7c1.8,0,2-0.7,2-2.6V5
			c0-2-0.2-2.6-2-2.6h-2.6v11.2L62.2,13.7z"/>
	</g>
</g>
</svg>
